<svg width="21" height="21" viewBox="0 0 21 21" fill="none" xmlns="http://www.w3.org/2000/svg">
<path d="M7.61152 6.46305C8.0024 6.14349 8.1359 5.60788 7.94219 5.14354L6.30164 1.20621L6.27551 1.1435C6.03952 0.651551 5.48386 0.395005 4.95068 0.540667L1.34222 1.52479M7.61152 6.46305C7.61152 6.46306 7.61152 6.46304 7.61152 6.46305ZM7.61152 6.46305L5.58954 8.11591L5.28682 8.36337L5.454 8.71682C6.86922 11.7087 9.29119 14.1307 12.2831 15.5459L12.6361 15.7129L12.8836 15.4108L14.5406 13.3888L14.5424 13.3867C14.8567 12.9987 15.3947 12.8634 15.8603 13.0576L19.7978 14.6983L19.7989 14.6987C20.3281 14.9178 20.6106 15.4954 20.4593 16.049L19.4753 19.657M19.4753 19.657C19.4753 19.6573 19.4754 19.6568 19.4753 19.657ZM19.4753 19.657C19.3376 20.1551 18.8856 20.4999 18.3742 20.4999C8.50352 20.4999 0.5 12.4964 0.5 2.62575C0.5 2.11436 0.844124 1.66251 1.34222 1.52479M1.34222 1.52479C1.34244 1.52473 1.34201 1.52485 1.34222 1.52479Z" stroke="white"/>
</svg>
