<svg width="40" height="42" viewBox="0 0 40 42" fill="none" xmlns="http://www.w3.org/2000/svg">
<path d="M32 1H8C3.58172 1 0 4.58172 0 9V33.0771C0 37.4954 3.58172 41.0771 8 41.0771H32C36.4183 41.0771 40 37.4954 40 33.0771V9C40 4.58172 36.4183 1 32 1Z" fill="#F9AA01"/>
<path d="M20.5028 14.1157C16.9557 14.1157 14.0945 16.983 14.0945 20.5377C14.0945 24.0925 16.9557 26.9598 20.5028 26.9598C24.0499 26.9598 26.911 24.0925 26.911 20.5377C26.911 16.983 24.0499 14.1157 20.5028 14.1157ZM20.5028 24.7129C18.2105 24.7129 16.3366 22.8405 16.3366 20.5377C16.3366 18.235 18.205 16.3626 20.5028 16.3626C22.8006 16.3626 24.669 18.235 24.669 20.5377C24.669 22.8405 22.795 24.7129 20.5028 24.7129ZM28.6679 13.853C28.6679 14.6858 27.9986 15.3509 27.1732 15.3509C26.3422 15.3509 25.6785 14.6802 25.6785 13.853C25.6785 13.0258 26.3477 12.3551 27.1732 12.3551C27.9986 12.3551 28.6679 13.0258 28.6679 13.853ZM32.9122 15.3733C32.8173 13.3667 32.36 11.5894 30.8932 10.125C29.432 8.66062 27.6584 8.20231 25.6562 8.1017C23.5926 7.98433 17.4074 7.98433 15.3438 8.1017C13.3472 8.19672 11.5736 8.65503 10.1068 10.1194C8.63999 11.5838 8.18823 13.3612 8.08784 15.3677C7.97072 17.4357 7.97072 23.6342 8.08784 25.7022C8.18265 27.7087 8.63999 29.4861 10.1068 30.9505C11.5736 32.4149 13.3416 32.8732 15.3438 32.9738C17.4074 33.0912 23.5926 33.0912 25.6562 32.9738C27.6584 32.8788 29.432 32.4205 30.8932 30.9505C32.3544 29.4861 32.8118 27.7087 32.9122 25.7022C33.0293 23.6342 33.0293 17.4413 32.9122 15.3733ZM30.2462 27.9211C29.8112 29.0166 28.969 29.8606 27.8703 30.3021C26.225 30.9561 22.321 30.8052 20.5028 30.8052C18.6846 30.8052 14.775 30.9505 13.1352 30.3021C12.0421 29.8662 11.1999 29.0222 10.7593 27.9211C10.1068 26.2723 10.2574 22.3598 10.2574 20.5377C10.2574 18.7156 10.1124 14.7976 10.7593 13.1544C11.1944 12.0589 12.0365 11.2149 13.1352 10.7734C14.7805 10.1194 18.6846 10.2703 20.5028 10.2703C22.321 10.2703 26.2306 10.125 27.8703 10.7734C28.9635 11.2093 29.8056 12.0533 30.2462 13.1544C30.8988 14.8032 30.7482 18.7156 30.7482 20.5377C30.7482 22.3598 30.8988 26.2779 30.2462 27.9211Z" fill="#1B1426"/>
</svg>
