<svg width="25" height="22" viewBox="0 0 25 22" fill="none" xmlns="http://www.w3.org/2000/svg">
<path d="M23.2143 0H1.7801C0.798002 0 0 0.712055 0 1.58616V20.4139C0 21.288 0.798002 22 1.7801 22H23.2143C24.1964 22 25 21.288 25 20.4139V1.58616C25 0.712055 24.1964 0 23.2143 0ZM7.5558 18.8572H3.8504V8.35805H7.5614V18.8572H7.5558ZM5.7031 6.92412C4.5145 6.92412 3.5547 6.07457 3.5547 5.03349C3.5547 3.99242 4.5145 3.14286 5.7031 3.14286C6.8862 3.14286 7.8516 3.99242 7.8516 5.03349C7.8516 6.07948 6.8917 6.92412 5.7031 6.92412ZM21.4453 18.8572H17.74V13.75C17.74 12.5321 17.7121 10.9656 15.8147 10.9656C13.8839 10.9656 13.5882 12.2916 13.5882 13.6616V18.8572H9.8828V8.35805H13.4375V9.79198H13.4877C13.9844 8.96697 15.1953 8.09778 16.9978 8.09778C20.7478 8.09778 21.4453 10.2733 21.4453 13.1018V18.8572Z" fill="white"/>
</svg>
