<svg width="31" height="31" viewBox="0 0 31 31" fill="none" xmlns="http://www.w3.org/2000/svg">
<path d="M0.5 2.61914C0.5 1.23633 1.45759 0.119141 2.64286 0.119141H28.3571C29.5424 0.119141 30.5 1.23633 30.5 2.61914C30.5 4.00195 29.5424 5.11914 28.3571 5.11914H2.64286C1.45759 5.11914 0.5 4.00195 0.5 2.61914ZM0.5 15.1191C0.5 13.7363 1.45759 12.6191 2.64286 12.6191H28.3571C29.5424 12.6191 30.5 13.7363 30.5 15.1191C30.5 16.502 29.5424 17.6191 28.3571 17.6191H2.64286C1.45759 17.6191 0.5 16.502 0.5 15.1191ZM30.5 27.6191C30.5 29.002 29.5424 30.1191 28.3571 30.1191H2.64286C1.45759 30.1191 0.5 29.002 0.5 27.6191C0.5 26.2363 1.45759 25.1191 2.64286 25.1191H28.3571C29.5424 25.1191 30.5 26.2363 30.5 27.6191Z" fill="white"/>
</svg>
