<svg width="40" height="42" viewBox="0 0 40 42" fill="none" xmlns="http://www.w3.org/2000/svg">
<path d="M32 1H8C3.58172 1 0 4.58172 0 9V33.0771C0 37.4954 3.58172 41.0771 8 41.0771H32C36.4183 41.0771 40 37.4954 40 33.0771V9C40 4.58172 36.4183 1 32 1Z" fill="#F9AA01"/>
<path d="M26.1481 21.0896L26.8222 16.5564H22.6073V13.6147C22.6073 12.3745 23.196 11.1658 25.0838 11.1658H27V7.30625C27 7.30625 25.2611 7 23.5985 7C20.1274 7 17.8585 9.17117 17.8585 13.1016V16.5564H14V21.0896H17.8585V32.0481H22.6073V21.0896H26.1481Z" fill="#1B1426"/>
</svg>
