<svg width="23" height="18" viewBox="0 0 23 18" fill="none" xmlns="http://www.w3.org/2000/svg">
<path d="M12.0555 11.3054L21.8288 3.65666C22.2482 3.32755 22.5 2.80865 22.5 2.25C22.5 1.26369 21.7382 0.5 20.8438 0.5H2.15625C1.2618 0.5 0.5 1.26369 0.5 2.25C0.5 2.80853 0.751974 3.32754 1.17118 3.65666M12.0555 11.3054C12.0553 11.3055 12.0557 11.3053 12.0555 11.3054ZM12.0555 11.3054C11.7242 11.5629 11.2763 11.5632 10.945 11.3057M10.945 11.3057C10.9448 11.3056 10.9452 11.3058 10.945 11.3057ZM10.945 11.3057L1.17118 3.65666M1.17118 3.65666C1.17109 3.65659 1.17127 3.65673 1.17118 3.65666ZM0.5 15V6.27622L9.46685 13.2938C10.6721 14.237 12.3279 14.237 13.5332 13.2938L22.5 6.27622V15C22.5 16.3988 21.4148 17.5 20.125 17.5H2.875C1.58524 17.5 0.5 16.3988 0.5 15Z" stroke="white"/>
</svg>
