<svg width="40" height="41" viewBox="0 0 40 41" fill="none" xmlns="http://www.w3.org/2000/svg">
<path d="M32 0H8C3.58172 0 0 3.58172 0 8V32.0771C0 36.4954 3.58172 40.0771 8 40.0771H32C36.4183 40.0771 40 36.4954 40 32.0771V8C40 3.58172 36.4183 0 32 0Z" fill="#F9AA01"/>
<path d="M21.9708 7.53786C21.1573 6.83894 19.8362 6.83894 19.0227 7.53786L8.61011 16.4842C7.79663 17.1831 7.79663 18.3181 8.61011 19.0171C9.4236 19.716 10.7447 19.716 11.5582 19.0171L18.4175 13.1181V30.2726C18.4175 31.2623 19.3481 32.0619 20.5 32.0619C21.6519 32.0619 22.5825 31.2623 22.5825 30.2726V13.1181L29.4418 19.0115C30.2553 19.7104 31.5764 19.7104 32.3899 19.0115C33.2034 18.3126 33.2034 17.1775 32.3899 16.4786L21.9773 7.53227L21.9708 7.53786Z" fill="#1B1426"/>
</svg>
