<svg width="40" height="42" viewBox="0 0 40 42" fill="none" xmlns="http://www.w3.org/2000/svg">
<path d="M32 1H8C3.58172 1 0 4.58172 0 9V33.0771C0 37.4954 3.58172 41.0771 8 41.0771H32C36.4183 41.0771 40 37.4954 40 33.0771V9C40 4.58172 36.4183 1 32 1Z" fill="#F9AA01"/>
<path d="M31.2143 8.01367H9.7801C8.798 8.01367 8 8.82438 8 9.8196V31.2559C8 32.2511 8.798 33.0618 9.7801 33.0618H31.2143C32.1964 33.0618 33 32.2511 33 31.2559V9.8196C33 8.82438 32.1964 8.01367 31.2143 8.01367ZM15.5558 29.4835H11.8504V17.5297H15.5614V29.4835H15.5558ZM13.7031 15.8971C12.5145 15.8971 11.5547 14.9299 11.5547 13.7445C11.5547 12.5592 12.5145 11.592 13.7031 11.592C14.8862 11.592 15.8516 12.5592 15.8516 13.7445C15.8516 14.9354 14.8917 15.8971 13.7031 15.8971ZM29.4453 29.4835H25.74V23.6688C25.74 22.2822 25.7121 20.4986 23.8147 20.4986C21.8839 20.4986 21.5882 22.0082 21.5882 23.5681V29.4835H17.8828V17.5297H21.4375V19.1623H21.4877C21.9844 18.223 23.1953 17.2334 24.9978 17.2334C28.7478 17.2334 29.4453 19.7102 29.4453 22.9307V29.4835Z" fill="#1B1426"/>
</svg>
