<svg width="25" height="22" viewBox="0 0 25 22" fill="none" xmlns="http://www.w3.org/2000/svg">
<path d="M12.503 5.35948C8.95602 5.35948 6.09452 7.87784 6.09452 11C6.09452 14.1222 8.95602 16.6406 12.503 16.6406C16.05 16.6406 18.911 14.1222 18.911 11C18.911 7.87784 16.05 5.35948 12.503 5.35948ZM12.503 14.6671C10.211 14.6671 8.33702 13.0226 8.33702 11C8.33702 8.97748 10.205 7.33293 12.503 7.33293C14.801 7.33293 16.669 8.97748 16.669 11C16.669 13.0226 14.795 14.6671 12.503 14.6671ZM20.668 5.12876C20.668 5.86021 19.999 6.44439 19.173 6.44439C18.342 6.44439 17.678 5.8553 17.678 5.12876C17.678 4.40222 18.348 3.81313 19.173 3.81313C19.999 3.81313 20.668 4.40222 20.668 5.12876ZM24.912 6.46403C24.817 4.70167 24.36 3.14058 22.893 1.85441C21.432 0.568225 19.658 0.165682 17.656 0.0773184C15.593 -0.0257728 9.40703 -0.0257728 7.34383 0.0773184C5.34723 0.160772 3.57362 0.563314 2.10682 1.8495C0.640022 3.13568 0.188225 4.69676 0.087825 6.45912C-0.029275 8.27548 -0.029275 13.7196 0.087825 15.536C0.182725 17.2984 0.640022 18.8595 2.10682 20.1456C3.57362 21.4318 5.34163 21.8343 7.34383 21.9227C9.40703 22.0258 15.593 22.0258 17.656 21.9227C19.658 21.8392 21.432 21.4367 22.893 20.1456C24.354 18.8595 24.812 17.2984 24.912 15.536C25.029 13.7196 25.029 8.28039 24.912 6.46403ZM22.246 17.4849C21.811 18.4471 20.969 19.1884 19.87 19.5762C18.225 20.1505 14.321 20.018 12.503 20.018C10.685 20.018 6.77503 20.1456 5.13523 19.5762C4.04213 19.1933 3.19993 18.452 2.75933 17.4849C2.10683 16.0368 2.25743 12.6004 2.25743 11C2.25743 9.39962 2.11243 5.95839 2.75933 4.51512C3.19443 3.55295 4.03653 2.81167 5.13523 2.42385C6.78053 1.8495 10.685 1.98204 12.503 1.98204C14.321 1.98204 18.231 1.85441 19.87 2.42385C20.963 2.80677 21.806 3.54804 22.246 4.51512C22.899 5.9633 22.748 9.39962 22.748 11C22.748 12.6004 22.899 16.0416 22.246 17.4849Z" fill="white"/>
</svg>
